<svg width="136" height="131" viewBox="0 0 136 131" fill="none" xmlns="http://www.w3.org/2000/svg">
<path d="M1.58431 62.0771H136V96.273H90.6885V96.267H90.6766C89.4155 96.2551 88.2416 96.6965 87.3255 97.4502C86.4124 98.202 85.7571 99.2682 85.5291 100.506C85.301 101.744 85.535 102.976 86.1219 104.005C86.7059 105.033 87.6428 105.86 88.8216 106.296C90.0084 106.735 91.2625 106.717 92.3749 106.317C93.4863 105.917 94.4639 105.136 95.0964 104.048C95.5336 103.293 96.5003 103.035 97.2557 103.473C98.0112 103.91 98.268 104.876 97.8308 105.632C96.8136 107.382 95.2362 108.641 93.4387 109.287C91.6403 109.932 89.6257 109.966 87.732 109.266C85.8305 108.563 84.3185 107.225 83.3737 105.564C82.4308 103.908 82.0551 101.928 82.4219 99.9367C82.7887 97.9452 83.8476 96.2273 85.3209 95.0133C86.7882 93.8043 88.6689 93.0952 90.6885 93.112V93.1061H132.832V65.244H3.16763V93.1061H45.3105V93.112C47.3301 93.0952 49.2108 93.8033 50.6782 95.0133C52.1514 96.2273 53.2093 97.9442 53.5771 99.9367C53.943 101.928 53.5682 103.908 52.6253 105.564C51.6805 107.225 50.1686 108.562 48.267 109.266C46.3733 109.966 44.3578 109.933 42.5603 109.287C40.7618 108.641 39.1855 107.382 38.1682 105.632C37.731 104.877 37.9888 103.91 38.7433 103.473C39.4987 103.035 40.4654 103.293 40.9026 104.048C41.5351 105.136 42.5127 105.918 43.6241 106.317C44.7365 106.717 45.9916 106.735 47.1774 106.296C48.3572 105.86 49.2941 105.032 49.8781 104.005C50.464 102.976 50.698 101.744 50.47 100.506C50.2419 99.2682 49.5856 98.203 48.6735 97.4502C47.7584 96.6965 46.5835 96.2541 45.3224 96.267H45.3105V96.273H0V62.0771H1.58431Z" fill="#070101"/>
<path fill-rule="evenodd" clip-rule="evenodd" d="M54.0594 48.9327C53.9146 48.8196 53.7768 48.6967 53.6469 48.5677C52.829 47.7465 52.3184 46.6138 52.3184 45.3691C52.3184 44.1244 52.829 42.9917 53.6469 42.1725C54.0019 41.8184 54.4143 41.5219 54.8684 41.2987L50.7827 34.6258L47.2125 33.025C46.0902 32.5221 45.1504 32.3486 44.3979 32.4339C43.7306 32.5092 43.2081 32.7998 42.8403 33.2412C42.4566 33.7044 42.2217 34.3461 42.1414 35.1038C42.0145 36.3287 42.2891 37.8442 42.9791 39.4172L48.9148 48.8464C48.9327 48.8752 48.9505 48.903 48.9684 48.9317C49.9053 50.4095 50.7381 51.3597 51.7216 51.923C52.714 52.4953 53.9047 52.6907 55.5535 52.6619L57.9458 52.6193L54.915 58.4859C54.5739 59.1454 54.8347 59.9637 55.495 60.3049C56.1553 60.646 56.9732 60.3852 57.3143 59.7246L61.0143 52.5637L69.5654 52.41L73.3458 59.7246C73.6868 60.3842 74.5057 60.6451 75.165 60.3049H75.166C75.8263 59.9647 76.0871 59.1454 75.746 58.4859L72.5784 52.3565L78.6589 52.2474C79.6562 52.2295 81.1355 52.0133 82.3817 51.5412C83.2571 51.2099 84.0037 50.7577 84.3398 50.1735L85.0605 48.9337L91.2471 38.2856C91.9728 37.137 92.182 36.0778 92.0055 35.1931C91.9242 34.7765 91.7527 34.3927 91.5098 34.0565C91.2669 33.7183 90.9427 33.4197 90.561 33.1797C89.5369 32.5321 88.0805 32.2801 86.4704 32.6015L82.7961 33.3354L78.5458 41.5794C78.8096 41.752 79.0544 41.9503 79.2755 42.1715C80.0944 42.9927 80.605 44.1254 80.605 45.3701C80.605 46.6148 80.0944 47.7475 79.2755 48.5667C79.1456 48.6976 79.0068 48.8206 78.8611 48.9347C78.0918 49.5377 77.1241 49.8977 76.0772 49.8977H56.8453C55.7984 49.8958 54.8287 49.5347 54.0594 48.9327Z" fill="#070101"/>
<path fill-rule="evenodd" clip-rule="evenodd" d="M54.3088 47.9067C54.861 48.4572 55.5956 48.8331 56.4096 48.9333H76.5139C77.3279 48.8331 78.0615 48.4582 78.6138 47.9058C79.2642 47.2561 79.6677 46.3565 79.6677 45.3697C79.6677 44.3818 79.2632 43.4833 78.6148 42.8316C77.9644 42.184 77.0642 41.7783 76.0777 41.7783H56.8458C55.8594 41.7783 54.9582 42.183 54.3098 42.8326C53.6604 43.4823 53.2559 44.3818 53.2559 45.3687C53.2559 46.3565 53.6604 47.2561 54.3088 47.9067Z" fill="#070101"/>
<path fill-rule="evenodd" clip-rule="evenodd" d="M77.7163 41.1491L82.0251 32.792L82.384 25.2433C82.152 22.9096 80.6718 21.0231 78.4827 19.6227C76.1033 18.1003 72.8861 17.1461 69.4944 16.8059C66.0928 16.4648 62.5186 16.7395 59.4313 17.6708C55.8017 18.7648 52.8531 20.7702 51.6961 23.7348L51.5762 34.131L55.765 40.9715C56.112 40.8862 56.4739 40.8406 56.8466 40.8406H76.0785C76.6545 40.8416 77.2077 40.9507 77.7163 41.1491Z" fill="#070101"/>
<path d="M118.504 79.2953C118.504 79.6762 118.79 79.9936 119.202 79.9936H119.298V89.1659C119.298 89.5785 119.678 89.8641 119.996 89.8641H126.536C126.949 89.8641 127.235 89.4833 127.235 89.1659V87.5155C127.235 87.1346 126.95 86.8173 126.536 86.8173H122.695C122.441 86.8173 122.346 86.7221 122.346 86.4364V80.4697C122.346 80.184 122.441 80.0253 122.79 80.0253H125.553C125.966 80.0253 126.252 79.6445 126.252 79.3271V77.6767C126.252 77.2958 125.966 76.9785 125.553 76.9785H122.759C122.473 76.9785 122.346 76.8515 122.346 76.5976V71.0434C122.346 70.8213 122.473 70.6943 122.695 70.6943H126.536C126.949 70.6943 127.235 70.3135 127.235 69.9961V68.3457C127.235 67.9648 126.95 67.6475 126.536 67.6475H119.996C119.615 67.6475 119.298 67.9331 119.298 68.3457V76.9467H119.202C118.79 76.9467 118.504 77.3276 118.504 77.645V79.2953ZM108.045 70.6943C108.045 70.5991 108.077 70.5049 108.235 70.5049H109.918C110.552 70.5049 110.934 70.6943 110.934 71.7744V76.7573C110.934 77.6142 110.521 77.9951 109.918 77.9951H108.299C108.077 77.9951 108.045 77.8364 108.045 77.7412V70.6943ZM108.045 81.2631C108.045 81.1362 108.108 81.0727 108.235 81.0727H108.807C110.426 81.0727 110.839 82.3105 110.87 83.5482C110.87 83.7069 110.902 86.4682 110.87 87.0712V89.1659C110.87 89.5785 111.251 89.8641 111.569 89.8641H113.22C113.601 89.8641 113.983 89.5785 113.983 89.1659V82.9452C113.983 81.8661 113.664 80.31 113.125 79.6445C113.823 79.1049 113.983 78.2162 113.983 76.9467V75.0424V71.0434C113.983 68.6313 112.586 67.6475 110.014 67.6475H105.696C105.315 67.6475 104.997 67.9331 104.997 68.3457V78.0258H104.902C104.49 78.0258 104.203 78.4067 104.203 78.7241V80.3744C104.203 80.7553 104.489 81.0727 104.902 81.0727H104.997V89.1659C104.997 89.5785 105.378 89.8641 105.696 89.8641H107.347C107.728 89.8641 108.045 89.5785 108.045 89.1659V81.2631ZM96.6325 68.3457V85.7709C96.6325 86.85 96.1883 87.0404 95.5538 87.0404H94.2203C93.5858 87.0404 93.2041 86.85 93.2041 85.7709V68.3457C93.2041 67.9331 92.8234 67.6475 92.5061 67.6475H90.8554C90.4747 67.6475 90.1574 67.9331 90.1574 68.3457V86.5009C90.1574 88.913 91.5544 90.0238 94.1261 90.0238H95.7134C98.2852 90.0238 99.6821 88.913 99.6821 86.5009V68.3457C99.6821 67.9331 99.3014 67.6475 98.9832 67.6475H97.3324C96.9507 67.6475 96.6325 67.9331 96.6325 68.3457ZM78.9671 70.6626C78.9671 70.6626 79.2844 70.6626 79.2844 70.98V89.1669C79.2844 89.5795 79.6651 89.8651 79.9823 89.8651H81.6331C82.0138 89.8651 82.331 89.5795 82.331 89.1669V71.0117C82.331 70.7578 82.4262 70.6308 82.7118 70.6308H84.7749C85.1884 70.6308 85.4739 70.25 85.4739 69.9326V68.3457C85.4739 67.9648 85.1884 67.6475 84.7749 67.6475H76.6481C76.2347 67.6475 75.9492 68.0601 75.9492 68.3774V69.9643C75.9492 70.3452 76.2347 70.6626 76.6481 70.6626H78.9671ZM68.6036 89.8651H70.2544C70.6351 89.8651 70.9533 89.5795 70.9533 89.1669V68.3457C70.9533 67.9331 70.5716 67.6475 70.2544 67.6475H68.6036C68.2229 67.6475 67.9057 67.9331 67.9057 68.3457V89.1669C67.9047 89.5795 68.2854 89.8651 68.6036 89.8651ZM59.9851 89.8651H61.5407C62.0175 89.8651 62.2714 89.643 62.2714 89.1669V68.3457C62.2714 67.9331 61.9214 67.6475 61.6041 67.6475H59.9216C59.5092 67.6475 59.2227 67.9966 59.2227 68.3774V79.4233C59.2227 79.582 59.0323 79.6137 58.9689 79.4233L55.0646 68.2187C54.9367 67.8696 54.5877 67.6475 54.2388 67.6475H52.6832C52.2708 67.6475 51.9525 67.9648 51.9525 68.3774V89.1669C51.9525 89.516 52.238 89.8651 52.6197 89.8651H54.3022C54.6829 89.8651 55.0002 89.6112 55.0002 89.1351V77.9623C55.0002 77.8036 55.1905 77.7402 55.254 77.9623L59.191 89.2938C59.3179 89.6112 59.4448 89.8651 59.8899 89.8651H59.9851ZM40.7007 70.6943C40.7007 70.5991 40.7324 70.5049 40.8911 70.5049H42.5735C43.2081 70.5049 43.5898 70.6943 43.5898 71.7744V76.7573C43.5898 77.6142 43.1773 77.9951 42.5735 77.9951H40.9545C40.7324 77.9951 40.7007 77.8364 40.7007 77.7412V70.6943ZM40.7007 81.2631C40.7007 81.1362 40.7642 81.0727 40.8911 81.0727H41.4631C43.0821 81.0727 43.4956 82.3105 43.5273 83.5482C43.5273 83.7069 43.559 86.4682 43.5273 87.0712V89.1659C43.5273 89.5785 43.908 89.8641 44.2253 89.8641H45.876C46.2567 89.8641 46.6384 89.5785 46.6384 89.1659V82.9452C46.6384 81.8661 46.3212 80.31 45.7808 79.6445C46.4788 79.1049 46.6384 78.2162 46.6384 76.9467V75.0424V71.0434C46.6384 68.6313 45.2415 67.6475 42.6697 67.6475H38.352C37.9713 67.6475 37.653 67.9331 37.653 68.3457V78.0258H37.5579C37.1454 78.0258 36.8589 78.4067 36.8589 78.7241V80.3744C36.8589 80.7553 37.1444 81.0727 37.5579 81.0727H37.653V89.1659C37.653 89.5785 38.0338 89.8641 38.352 89.8641H40.0027C40.3835 89.8641 40.7017 89.5785 40.7017 89.1659V81.2631H40.7007ZM29.2883 68.3457V85.7709C29.2883 86.85 28.8442 87.0404 28.2086 87.0404H26.8752C26.2397 87.0404 25.8589 86.85 25.8589 85.7709V68.3457C25.8589 67.9331 25.4782 67.6475 25.161 67.6475H23.5102C23.1295 67.6475 22.8123 67.9331 22.8123 68.3457V86.5009C22.8123 88.913 24.2092 90.0238 26.781 90.0238H28.3683C30.94 90.0238 32.337 88.913 32.337 86.5009V68.3457C32.337 67.9331 31.9563 67.6475 31.638 67.6475H29.9873C29.6066 67.6475 29.2883 67.9331 29.2883 68.3457ZM8.76562 79.2953C8.76562 79.6762 9.05116 79.9936 9.46359 79.9936H9.55877V89.1659C9.55877 89.5785 9.94047 89.8641 10.2577 89.8641H11.9085C12.3209 89.8641 12.6074 89.5467 12.6074 89.1659V80.3417C12.6074 80.1513 12.7343 80.0243 12.9564 80.0243H15.8137C16.2262 80.0243 16.5127 79.6435 16.5127 79.3261V77.6757C16.5127 77.2948 16.2272 76.9775 15.8137 76.9775H12.9564C12.7026 76.9775 12.6074 76.8823 12.6074 76.6283V71.0434C12.6074 70.8213 12.7343 70.6943 12.9564 70.6943H16.7982C17.2107 70.6943 17.4962 70.3135 17.4962 69.9961V68.3457C17.4962 67.9648 17.2107 67.6475 16.7982 67.6475H10.2577C9.87603 67.6475 9.55877 67.9331 9.55877 68.3457V76.9467H9.46359C9.05116 76.9467 8.76562 77.3276 8.76562 77.645V79.2953Z" fill="#070101"/>
<path d="M75.2464 98.5651C75.2464 98.5651 75.3872 98.5651 75.3872 98.7049V107.117C75.3872 107.299 75.5557 107.426 75.6965 107.426H76.0762C76.2448 107.426 76.3856 107.299 76.3856 107.117V98.7188C76.3856 98.6067 76.4282 98.5502 76.5551 98.5502H77.6526C77.835 98.5502 77.9619 98.3816 77.9619 98.2408V97.8897C77.9619 97.7211 77.835 97.5802 77.6526 97.5802H74.0507C73.8683 97.5802 73.7414 97.7488 73.7414 97.8897V98.2556C73.7414 98.4242 73.8683 98.5651 74.0507 98.5651H75.2464ZM71.7437 105.401C71.7437 105.794 71.5741 106.498 70.6035 106.526C69.7588 106.54 69.5486 106.105 69.5486 105.626V104.95C69.5486 104.753 69.4505 104.641 69.2393 104.641H68.8447C68.6474 104.641 68.5354 104.81 68.5354 104.992V105.949C68.5354 106.821 69.3374 107.496 70.4776 107.496H70.7314C71.9697 107.496 72.7569 106.596 72.7569 105.527V105.245C72.7569 104.12 72.0679 103.332 71.013 102.122C70.0424 100.982 69.5357 100.322 69.5357 99.6323C69.507 98.8309 70.085 98.5492 70.6749 98.5492C71.6455 98.5492 71.7585 98.9707 71.7585 99.4071V100.083C71.7585 100.279 71.8567 100.392 72.0679 100.392H72.4476C72.6449 100.392 72.7569 100.223 72.7569 100.04V99.0838C72.7569 98.211 71.9558 97.5078 70.8157 97.5078H70.5629C69.3246 97.5078 68.5364 98.2537 68.5364 99.5053V99.786C68.5502 100.743 69.2115 101.516 70.0136 102.473C70.8008 103.446 71.7437 104.135 71.7437 105.401ZM63.5405 102.377C63.5405 102.545 63.6674 102.686 63.8499 102.686H63.8925V107.118C63.8925 107.3 64.061 107.427 64.2018 107.427H67.1008C67.2842 107.427 67.4101 107.258 67.4101 107.118V106.822C67.4101 106.653 67.2842 106.513 67.1008 106.513H65.0465C64.9335 106.513 64.8919 106.47 64.8919 106.344V102.897C64.8919 102.771 64.9345 102.701 65.0892 102.701H66.6645C66.848 102.701 66.9739 102.532 66.9739 102.392V102.026C66.9739 101.857 66.848 101.716 66.6645 101.716H65.0743C64.9474 101.716 64.8909 101.661 64.8909 101.547V98.7198C64.8909 98.6216 64.9474 98.5651 65.0455 98.5651H67.0998C67.2832 98.5651 67.4091 98.3965 67.4091 98.2556V97.8897C67.4091 97.7211 67.2832 97.5802 67.0998 97.5802H64.2008C64.0323 97.5802 63.8915 97.7072 63.8915 97.8897V101.701H63.8489C63.6664 101.701 63.5395 101.87 63.5395 102.011V102.377H63.5405ZM59.3894 102.784C59.3894 102.728 59.432 102.686 59.4875 102.686H60.9648C61.2463 102.686 61.6261 102.855 61.6261 103.333V105.963C61.6261 106.441 61.3157 106.525 61.0352 106.525H59.4875C59.4172 106.525 59.3894 106.498 59.3894 106.427V102.784ZM59.4033 98.6494C59.4033 98.5939 59.432 98.5512 59.5014 98.5512H61.0074C61.289 98.5512 61.5983 98.6355 61.5983 99.1136V101.068C61.5983 101.546 61.2186 101.715 60.937 101.715H59.5014C59.4459 101.715 59.4033 101.673 59.4033 101.617V98.6494ZM62.6254 99.0858C62.6254 98.0166 61.9919 97.5802 60.8528 97.5802H58.7142C58.5318 97.5802 58.4049 97.7072 58.391 97.8758V101.715H58.3345C58.166 101.715 58.0391 101.87 58.0391 102.025V102.404C58.0391 102.573 58.1511 102.7 58.3484 102.714H58.391V107.117C58.391 107.299 58.5318 107.426 58.7003 107.426H60.8666C62.0068 107.426 62.6254 106.99 62.6254 105.921V102.982C62.6116 102.602 62.4708 102.391 62.1188 102.18C62.4004 101.969 62.6254 101.772 62.6254 101.308V99.0858Z" fill="#070101"/>
<path d="M81.9432 118.187V121.366C81.9432 121.549 82.1117 121.675 82.2525 121.675H82.6322C82.8017 121.675 82.9425 121.548 82.9425 121.366V118.187L84.5179 112.223C84.5744 111.998 84.4753 111.829 84.2363 111.829H83.926C83.7436 111.829 83.5741 111.914 83.5037 112.125L82.5192 115.922C82.4904 116.021 82.421 116.021 82.3923 115.922L81.4217 112.125C81.3513 111.914 81.2244 111.829 80.9854 111.829H80.6751C80.5631 111.829 80.3519 111.941 80.4084 112.166L81.9432 118.187ZM76.7649 112.814C76.7649 112.814 76.9057 112.814 76.9057 112.955V121.367C76.9057 121.55 77.0742 121.676 77.216 121.676H77.5957C77.7652 121.676 77.906 121.549 77.906 121.367V112.969C77.906 112.857 77.9477 112.8 78.0746 112.8H79.1721C79.3555 112.8 79.4824 112.632 79.4824 112.491V112.139C79.4824 111.97 79.3555 111.829 79.1721 111.829H75.5702C75.3868 111.829 75.2609 111.998 75.2609 112.139V112.505C75.2609 112.673 75.3868 112.814 75.5702 112.814H76.7649ZM73.3038 121.676H73.6835C73.8521 121.676 73.9928 121.549 73.9928 121.367V112.139C73.9928 111.956 73.8243 111.829 73.6835 111.829H73.3038C73.1352 111.829 72.9945 111.956 72.9945 112.139V121.367C72.9945 121.549 73.163 121.676 73.3038 121.676ZM68.5756 121.676H71.4885C71.7135 121.676 71.7988 121.521 71.7988 121.367V120.987C71.7988 120.79 71.6858 120.677 71.4885 120.677H69.462C69.3073 120.677 69.2647 120.648 69.2647 120.481V112.14C69.2647 111.957 69.0961 111.83 68.9554 111.83H68.5756C68.4071 111.83 68.2663 111.957 68.2663 112.14V121.367C68.2663 121.549 68.4349 121.676 68.5756 121.676ZM64.6367 114.009C64.6506 113.91 64.7913 113.91 64.8052 114.009L65.635 118.412C65.6916 118.694 65.6073 118.707 65.3396 118.707H64.1152C63.8336 118.707 63.7771 118.707 63.8197 118.427L64.6367 114.009ZM66.8872 121.676C67.0419 121.676 67.1688 121.507 67.1262 121.296L65.41 112.111C65.3674 111.9 65.2831 111.83 65.058 111.83H64.3541C64.1291 111.83 64.0448 111.901 64.0022 112.111L62.2711 121.367C62.2285 121.564 62.398 121.676 62.5388 121.676H62.9463C63.1009 121.676 63.2417 121.549 63.2705 121.367L63.5233 119.974C63.5798 119.693 63.6076 119.665 63.8465 119.665H65.5349C65.7887 119.665 65.8165 119.693 65.873 119.974L66.1546 121.367C66.1823 121.55 66.3092 121.676 66.4639 121.676H66.8872ZM60.1336 112.139V120.213C60.1336 120.691 59.9363 120.775 59.6547 120.775H58.3599C58.0783 120.775 57.9098 120.691 57.9098 120.213V112.139C57.9098 111.956 57.7412 111.829 57.5995 111.829H57.2198C57.0512 111.829 56.9094 111.956 56.9094 112.139V120.185C56.9094 121.254 57.5291 121.732 58.6692 121.732H59.3731C60.5123 121.732 61.132 121.254 61.132 120.185V112.139C61.132 111.956 60.9634 111.829 60.8226 111.829H60.4429C60.2744 111.829 60.1336 111.956 60.1336 112.139ZM52.4232 113.249C52.4232 112.771 52.5917 112.687 52.8733 112.687H54.1959C54.4774 112.687 54.646 112.771 54.646 113.249V120.212C54.646 120.69 54.4774 120.774 54.1959 120.774H52.8733C52.5917 120.774 52.4232 120.69 52.4232 120.212V113.249ZM55.3638 122.364C55.5462 122.223 55.5333 122.041 55.4342 121.915L55.0545 121.465C55.4342 121.212 55.6454 120.804 55.6454 120.185V113.278C55.6454 112.209 55.0257 111.759 53.8866 111.759H53.1826C52.0435 111.759 51.4238 112.209 51.4238 113.278V120.185C51.4238 121.254 52.0435 121.746 53.1826 121.746H53.8439L54.5756 122.618C54.6876 122.745 54.871 122.773 55.0257 122.647L55.3638 122.364Z" fill="#070101"/>
<path d="M125.689 96.2725C122.643 101.952 118.781 107.13 114.261 111.65C102.422 123.485 86.0665 130.806 68.0016 130.806C49.9367 130.806 33.581 123.485 21.7423 111.65C17.2223 107.13 13.3597 101.953 10.313 96.2725H13.9347C16.6939 101.093 20.0806 105.509 23.9819 109.41C35.2466 120.672 50.8111 127.639 68.0016 127.639C85.1921 127.639 100.756 120.672 112.021 109.41C115.924 105.509 119.309 101.093 122.068 96.2725H125.689ZM68.0006 0C86.0655 0 102.421 7.32059 114.26 19.1559C125.367 30.2603 132.499 45.3388 133.338 62.0757H130.166C129.33 46.2136 122.554 31.9255 112.02 21.3944C100.755 10.1324 85.1911 3.16587 68.0006 3.16587C50.8101 3.16587 35.2456 10.1324 23.9809 21.3944C13.4469 31.9265 6.67048 46.2146 5.8347 62.0767H2.66211C3.50086 45.3398 10.6322 30.2603 21.7403 19.1569C33.579 7.32059 49.9347 0 68.0006 0Z" fill="#070101"/>
</svg>
